<svg enable-background="new 0 0 496 496" height="512" viewBox="0 0 496 496" width="512" xmlns="http://www.w3.org/2000/svg"><g fill="#557287"><path d="m384.344 238.23-80.344-58.432v-112.048c0-14.96-5.824-29.016-16.4-39.6l-20.288-20.28c-10.312-10.32-28.312-10.32-38.624 0l-20.288 20.288c-10.576 10.576-16.4 24.64-16.4 39.592v112.04l-80.336 58.424c-4.8 3.496-7.664 9.12-7.664 15.056 0 10.256 8.344 18.6 18.6 18.6h53.4v-16h-53.4c-1.432 0-2.6-1.168-2.6-2.6 0-.832.4-1.616 1.072-2.104l70.928-51.584v72.288h112v-72.288l70.928 51.584c.672.488 1.072 1.272 1.072 2.104 0 1.432-1.168 2.6-2.6 2.6h-53.4v16h53.4c10.256 0 18.6-8.344 18.6-18.6 0-5.928-2.864-11.552-7.656-15.04zm-128.344 17.64h-16v-52.688l8-8 8 8zm32-144h-16v16h16v128h-16v-59.312l-24-24-24 24v59.312h-16v-128h16v-16h-16v-16h80zm0-32h-80v-12.12c0-10.68 4.16-20.728 11.712-28.28l20.288-20.288c4.208-4.208 11.792-4.208 16 0l20.288 20.288c7.552 7.552 11.712 17.6 11.712 28.28z"/><path d="m280 287.87v16h-24v-16h-16v16h-24v-16h-16v32h96v-32z"/><path d="m461.576 479.87c1.56-5.184 2.424-10.56 2.424-16 0-30.88-25.12-56-56-56-8.976 0-17.432 2.176-24.952 5.944-4.76-26.088-27.608-45.944-55.048-45.944-6.736 0-13.44 1.232-19.712 3.584-7.656-8.808-17.24-16.008-28.288-20.84v-14.744h-16v25.832l5.328 1.888c25.52 9.04 42.672 33.264 42.672 60.28h16c0-13.864-3.784-27.032-10.248-38.648 3.312-.872 6.728-1.352 10.248-1.352 22.056 0 40 17.944 40 40 0 .312-.032.616-.04.928-9.856 10.096-15.96 23.88-15.96 39.072h16c0-22.056 17.944-40 40-40s40 17.944 40 40c0 5.504-1.168 10.952-3.392 16h-393.264c-2.192-5.016-3.344-10.464-3.344-16 0-22.056 17.944-40 40-40 14.232 0 27.512 7.664 34.656 20.008l13.848-8.016c-2.36-4.08-5.24-7.76-8.464-11.056-.008-.312-.04-.624-.04-.936 0-22.056 17.944-40 40-40 3.52 0 6.936.48 10.24 1.352-6.456 11.616-10.24 24.784-10.24 38.648 0 18.232 6.304 36.072 17.736 50.24l12.448-10.056c-9.28-11.496-14.184-25.384-14.184-40.184 0-27.016 17.152-51.24 42.672-60.272l5.328-1.896v-25.832h-16v14.744c-11.048 4.832-20.632 12.032-28.288 20.84-6.272-2.352-12.976-3.584-19.712-3.584-27.472 0-50.336 19.896-55.056 46.024-7.656-3.824-16.144-6.024-24.944-6.024-30.88 0-56 25.12-56 56 0 5.456.848 10.832 2.392 16h-34.392v16h496v-16z"/><path d="m200 407.87h16v16h-16z"/><path d="m296 439.87h16v16h-16z"/><path d="m400 447.87h16v16h-16z"/><path d="m136 447.87h16v16h-16z"/></g></svg>